<?xml version="1.0" encoding="utf-8"?>
<!-- Generator: Adobe Illustrator 16.0.0, SVG Export Plug-In . SVG Version: 6.00 Build 0)  -->
<!DOCTYPE svg PUBLIC "-//W3C//DTD SVG 1.1//EN" "http://www.w3.org/Graphics/SVG/1.1/DTD/svg11.dtd">
<svg version="1.1" id="Layer_1" xmlns="http://www.w3.org/2000/svg" xmlns:xlink="http://www.w3.org/1999/xlink" x="0px" y="0px"
	 width="350px" height="70.91px" viewBox="-50 -10.001 350 70.91" enable-background="new -50 -10.001 350 70.91"
	 xml:space="preserve">
<g>
	<path fill="#009EE2" d="M86.113-10.001h-39.74c-1.188,0-2.161,0.968-2.161,2.16v39.742c0,1.188,0.972,2.155,2.161,2.155h39.74
		c1.187,0,2.16-0.968,2.16-2.155V-7.841C88.274-9.033,87.3-10.001,86.113-10.001L86.113-10.001z"/>
	<path fill="#FFFFFF" d="M85.323,16.261c-1.594-2.021-5.494-2.445-7.604-2.445c-8.797,0-17.214,1.634-24.958,4.626
		c0.068-2.295,0.001-4.594-0.257-6.86c5.895-1.72,16.295-3.102,23.142-2.502C82.041,9.64,84.45,13.204,85.323,16.261L85.323,16.261z
		"/>
	<path fill="#FFFFFF" d="M82.46,10.425c-1.783-1.674-3.144-2.882-8.551-3.664c-5.407-0.779-16.845,0.398-21.908,1.674
		c-0.363-2.001-0.851-3.977-1.462-5.913c3.468-0.609,7.037-0.93,10.684-0.93c3.54,0,7.019,0.302,10.394,0.878
		C78.769,3.696,81.044,7.701,82.46,10.425L82.46,10.425z"/>
	<path fill="#FFFFFF" d="M46.663-6.243C65.077-6.722,75.421,1.34,77.481,3.561c-1.792-1.495-5.252-2.768-8.232-3.342
		C65.587-0.484,61.807-0.85,57.926-0.85c-2.837,0-5.632,0.197-8.363,0.583C48.867-2.084,47.577-4.523,46.663-6.243L46.663-6.243z"/>
	<path fill="#FFFFFF" d="M82.46,27.931c2.962-6.121,2.267-7.19-3.549-6.482c-9.04,1.104-20.437,4.975-29.046,9.625
		c1.57-3.038,2.336-6.099,2.639-8.858c8.312-3.65,17.458-5.75,27.071-5.94C89.641,16.075,85.864,23.775,82.46,27.931L82.46,27.931z"
		/>
	<path d="M7.585,15.779c1.247-0.181,3.1-0.319,5.159-0.319c2.543,0,4.319,0.344,5.542,1.203c1.014,0.729,1.575,2.261,1.575,3.67
		c0,1.951-1.259,3.343-2.732,3.82v0.068c0.732,1.02,5.108,6.64,5.108,6.64h-4.279l-4.596-6.007h-1.938v6.007H7.585V15.779
		L7.585,15.779z M11.424,22.36h1.522c1.934,0,3.076-0.861,3.076-2.204c0-1.405-1.068-2.108-2.847-2.131
		c-0.938,0-1.475,0.067-1.753,0.11L11.424,22.36L11.424,22.36z M-49.213,27.314c1.044,0.478,2.645,0.949,4.298,0.949
		c1.781,0,2.722-0.656,2.722-1.653c0-0.955-0.812-1.502-2.877-2.16c-2.847-0.886-4.703-2.29-4.703-4.519
		c0-2.613,2.439-4.611,6.482-4.611c1.934,0,3.359,0.367,4.38,0.775l-0.865,2.792c-0.686-0.294-1.907-0.727-3.588-0.727
		c-1.677,0-2.493,0.684-2.493,1.475c0,0.982,0.968,1.41,3.182,2.158c3.031,1.003,4.453,2.406,4.453,4.565
		c0,2.564-2.212,4.771-6.917,4.771c-1.962,0-3.893-0.477-4.86-0.955L-49.213,27.314L-49.213,27.314z M-26.673,24.405h-6.312v3.636
		h7.047v2.837h-10.939V15.572h10.583v2.838h-6.688v3.18h6.31L-26.673,24.405L-26.673,24.405z M-10.24,30.174
		c-1.196,0.365-3.46,0.865-5.726,0.865c-3.128,0-5.392-0.707-6.972-2.068c-1.578-1.317-2.442-3.314-2.417-5.558
		c0.027-5.09,4.172-8.001,9.796-8.001c2.213,0,3.917,0.386,4.758,0.754l-0.812,2.768c-0.942-0.361-2.112-0.66-3.996-0.66
		c-3.228,0-5.67,1.636-5.67,4.953c0,3.156,2.212,5.019,5.391,5.019c0.89,0,1.604-0.09,1.908-0.226v-3.203l0.012-2.701h3.728v8.057
		H-10.24z M-4.619,15.574v8.811c0,2.631,1.119,3.972,3.103,3.972c2.037,0,3.156-1.266,3.156-3.972v-8.811h3.866v8.583
		c0,4.726-2.672,6.972-7.149,6.972c-4.326,0-6.872-2.136-6.872-7.017v-8.536h3.895v-0.002H-4.619z M37.371,23.069
		c0,5.015-3.409,8.06-8.421,8.06c-5.089,0-8.062-3.43-8.062-7.789c0-4.586,3.282-8.02,8.344-8.02
		C34.498,15.322,37.371,18.843,37.371,23.069L37.371,23.069z M24.983,23.269c0,3.001,1.577,5.114,4.17,5.114
		c2.621,0,4.123-2.226,4.123-5.199c0-2.751-1.474-5.117-4.149-5.117C26.509,18.069,24.983,20.297,24.983,23.269L24.983,23.269z"/>
	<path d="M-36.454-5.671c-1.375-0.985-3.428-1.464-6.277-1.464c-2.467,0-4.552,0.121-6.216,0.369v18.065h4.347
		c0-0.316,0-6.687,0-6.687l0.187,0.028c0.417,0.053,0.968,0.082,1.583,0.082c2.872,0,5.183-0.665,6.676-1.924
		c1.199-1.014,1.859-2.543,1.859-4.293C-34.292-3.182-35.078-4.705-36.454-5.671L-36.454-5.671z M-42.856,1.824
		c-0.746,0-1.225-0.037-1.613-0.117L-44.6,1.677v-5.761l0.122-0.036c0.217-0.048,0.828-0.167,1.996-0.167
		c2.411,0,3.849,1.084,3.849,2.902C-38.633,0.592-40.252,1.824-42.856,1.824L-42.856,1.824z M-23.475-7.299
		c-5.879,0-9.992,3.942-9.992,9.591c0,5.568,3.882,9.313,9.65,9.313c6.126,0,10.082-3.785,10.082-9.647
		C-13.733-2.652-16.744-7.299-23.475-7.299L-23.475-7.299z M-23.566,8.591c-3.187,0-5.245-2.506-5.245-6.384
		c0-3.885,2.093-6.494,5.214-6.494c3.067,0,5.211,2.626,5.211,6.384C-18.385,6.043-20.418,8.591-23.566,8.591L-23.566,8.591z
		 M-0.526,3.466l-0.032-0.043V3.167l0.114-0.04C1.04,2.651,2.771,1.183,2.771-1.368c0-1.802-0.744-3.542-1.848-4.333
		c-1.404-0.993-3.458-1.435-6.656-1.435c-2.235,0-4.453,0.137-6.12,0.368v18.065h4.345c0-0.32,0-7.324,0-7.324h2.612
		c0,0,5.5,7.191,5.601,7.324H5.49C4.503,10.026,0.26,4.558-0.526,3.466L-0.526,3.466z M-5.484,1.264h-2.023v-5.443l0.137-0.023
		c0.577-0.093,1.306-0.14,2.171-0.14c2.339,0.031,3.628,1.012,3.628,2.764C-1.572,0.178-3.067,1.264-5.484,1.264L-5.484,1.264z
		 M19.091-6.996c0,0.286,0,2.919,0,3.205c-0.312,0-5.699,0-5.699,0s0,14.766,0,15.091c-0.297,0-4.107,0-4.407,0
		c0-0.325,0-15.091,0-15.091s-5.293,0-5.604,0c0-0.286,0-2.919,0-3.205C3.707-6.996,18.771-6.996,19.091-6.996L19.091-6.996z
		 M28.514-7.299c-5.878,0-9.99,3.942-9.99,9.591c0,5.568,3.875,9.313,9.653,9.313c6.123,0,10.08-3.785,10.08-9.647
		C38.254-2.652,35.246-7.299,28.514-7.299L28.514-7.299z M28.422,8.591c-3.186,0-5.241-2.506-5.241-6.384
		c0-3.885,2.091-6.494,5.212-6.494c3.071,0,5.215,2.626,5.215,6.384C33.606,6.043,31.573,8.591,28.422,8.591L28.422,8.591z"/>
</g>
</svg>
